<?xml version="1.0" standalone="no"?>
<!DOCTYPE svg PUBLIC "-//W3C//DTD SVG 20010904//EN"
 "http://www.w3.org/TR/2001/REC-SVG-20010904/DTD/svg10.dtd">
<svg version="1.0" xmlns="http://www.w3.org/2000/svg"
 width="311.000000pt" height="83.000000pt" viewBox="0 0 311.000000 83.000000"
 preserveAspectRatio="xMidYMid meet">

<g transform="translate(0.000000,83.000000) scale(0.100000,-0.100000)"
stroke="none" fill='#fff'>
<path d="M213 688 l-93 -10 0 -207 0 -206 107 -64 c59 -35 112 -64 118 -64 6
0 59 29 118 64 l107 64 0 206 0 205 -114 12 c-62 7 -122 11 -132 11 -11 -1
-61 -6 -111 -11z m295 -34 l32 -6 0 -74 c0 -41 -2 -74 -5 -74 -2 0 -33 18 -68
39 -131 80 -113 79 -217 16 -50 -30 -93 -55 -95 -55 -3 0 -5 33 -5 74 l0 75
58 6 c31 3 64 8 72 10 19 5 183 -3 228 -11z m-53 -129 c44 -26 81 -48 82 -49
2 -1 -15 -12 -36 -24 l-39 -22 -52 30 c-70 41 -88 33 -21 -9 61 -37 62 -54 2
-20 -52 29 -64 19 -15 -12 21 -13 32 -25 25 -27 -7 -2 -18 1 -24 7 -6 6 -18
11 -26 11 -11 0 -10 -4 4 -20 16 -17 16 -20 2 -26 -9 -3 -54 17 -112 52 l-96
57 97 58 c69 41 102 55 113 49 9 -4 52 -29 96 -55z m-121 -186 c23 -21 -6 -18
-41 4 -60 38 -83 48 -83 38 0 -5 32 -28 72 -52 40 -23 67 -44 60 -47 -7 -2
-35 10 -63 28 -28 17 -56 29 -62 27 -6 -2 21 -23 60 -46 l71 -42 63 39 c63 38
64 40 67 85 3 41 7 49 33 62 l29 16 0 -85 0 -85 -83 -50 c-46 -28 -91 -53
-101 -57 -10 -4 -50 14 -111 50 l-95 57 0 84 0 85 88 -51 c48 -29 91 -55 96
-60z"/>
<path d="M810 466 c0 -103 3 -126 14 -126 11 0 16 14 18 46 3 43 5 47 38 58
33 10 35 13 38 61 1 28 -2 56 -7 64 -5 7 -29 16 -55 18 l-46 6 0 -127z m68 47
c-2 -26 -8 -38 -18 -38 -10 0 -16 12 -18 38 -3 32 0 37 18 37 18 0 21 -5 18
-37z"/>
<path d="M947 583 c-4 -3 -7 -60 -7 -125 0 -111 1 -118 20 -118 16 0 20 7 20
38 0 38 13 71 23 56 3 -5 10 -28 16 -51 9 -32 17 -43 31 -43 25 0 25 -3 -1 82
l-22 71 22 44 c26 53 26 53 2 53 -13 0 -26 -16 -42 -52 l-24 -53 -3 53 c-3 49
-16 65 -35 45z"/>
<path d="M1090 480 c0 -97 2 -112 20 -130 11 -11 29 -20 40 -20 11 0 29 9 40
20 18 18 20 33 20 130 0 103 -1 110 -20 110 -19 0 -20 -7 -20 -111 0 -100 -2
-110 -17 -107 -16 3 -18 18 -21 111 -2 99 -4 107 -22 107 -19 0 -20 -7 -20
-110z"/>
<path d="M1325 578 c-5 -15 -35 -210 -35 -227 0 -22 30 -10 36 15 8 32 47 30
52 -3 2 -15 10 -23 23 -23 10 0 19 1 19 3 0 1 -9 54 -20 117 -11 63 -20 118
-20 123 0 12 -50 8 -55 -5z m38 -110 c6 -42 4 -48 -12 -48 -19 0 -19 10 -5 79
7 31 10 25 17 -31z"/>
<path d="M1452 578 c-8 -8 -12 -48 -12 -113 0 -86 3 -104 18 -118 40 -36 92
-7 92 51 0 40 -27 44 -32 5 -2 -17 -10 -29 -20 -31 -16 -3 -18 6 -18 86 0 49
3 92 7 95 10 11 33 -13 33 -34 0 -11 7 -19 15 -19 20 0 20 54 -1 74 -18 19
-65 21 -82 4z"/>
<path d="M1606 573 c-10 -37 -37 -226 -32 -230 11 -12 36 8 36 27 0 31 44 23
48 -7 2 -15 10 -23 23 -23 23 0 23 -10 -1 130 -11 63 -20 116 -20 118 0 1 -11
2 -24 2 -15 0 -27 -7 -30 -17z m38 -100 c6 -44 4 -53 -9 -53 -16 0 -19 26 -9
79 8 40 10 38 18 -26z"/>
<path d="M1720 465 l0 -125 48 0 c26 0 53 5 60 12 8 8 12 47 12 109 0 90 -2
99 -22 113 -12 9 -39 16 -60 16 l-38 0 0 -125z m78 -2 c-3 -74 -6 -88 -20 -91
-16 -3 -18 6 -18 87 0 85 1 91 20 91 20 0 21 -5 18 -87z"/>
<path d="M1870 465 l0 -125 55 0 c42 0 55 3 55 15 0 10 -11 15 -35 15 -34 0
-35 1 -35 40 0 36 3 40 25 40 16 0 25 6 25 15 0 9 -9 15 -25 15 -22 0 -25 4
-25 35 0 33 2 35 35 35 28 0 35 4 35 20 0 18 -7 20 -55 20 l-55 0 0 -125z"/>
<path d="M2000 466 c0 -105 2 -126 15 -126 12 0 15 16 16 83 l2 82 15 -82 c12
-66 19 -83 32 -83 14 0 19 12 24 54 14 105 24 118 25 29 1 -67 4 -83 16 -83
13 0 15 21 15 126 l0 125 -27 -3 c-27 -3 -28 -6 -39 -83 -6 -44 -12 -78 -14
-75 -1 3 -7 39 -14 80 -10 71 -12 75 -38 78 l-28 3 0 -125z"/>
<path d="M2206 515 c13 -42 24 -98 24 -125 0 -43 3 -50 20 -50 18 0 20 7 20
53 0 30 9 80 20 112 25 71 25 87 3 83 -11 -2 -21 -18 -26 -41 -11 -47 -23 -47
-34 1 -6 27 -15 38 -30 40 l-21 3 24 -76z"/>
</g>
</svg>
